<svg id="Capa_1" enable-background="new 0 0 512 512" height="512" viewBox="0 0 512 512" width="512" xmlns="http://www.w3.org/2000/svg"><g><g><path clip-rule="evenodd" d="m76.637 87.085c-6.162 12.58-11.71 30.894-14.28 51.491l83.05 95.111 12.79-101.138c-23.186-10.24-39.189-25.453-54.082-48.448-11.212-13.955-24.791-4.272-27.478 2.984z" fill="#00b1cd" fill-rule="evenodd"/></g><g><path clip-rule="evenodd" d="m361.472 147.411c-21.23 29.929-18.66 60.648 10.659 91.015.555.556-.175 1.551-.263 2.34l51.483-80.015c-.934-.761 6.103-12.492 5.139-13.341h-18.222-48.796z" fill="#fdb440" fill-rule="evenodd"/></g><g><path clip-rule="evenodd" d="m15.4 370.781c-13.959-19.256-6.191-34.872 7.356-31.832 81.302 18.287 99.609-9.978 84.31-16.297-77.44-13.08-103.431-66.559-106.707-117.873-.01-.186-.021-.361-.031-.546-.103-1.629-.185-3.257-.227-4.865-.185-5.649-.113-11.257.196-16.761 1.453-26.142 8.046-49.974 15.576-65.302 2.627-10.36 18.183-18.05 27.444-2.979 6.016 9.298 12.239 17.318 19.038 24.255 19.594 20.039 44.04 31.007 83.053 37.388 1.545-16.297 6.068-30.811 12.785-43.418 22.283-41.872 69.012-62.581 113.279-56.344 0 0 61.056 4.604 89.997 71.209 10.343 24.305 14.897 54.673 10.663 91.009l-.268 2.34c-1.545 12.256-3.853 23.987-6.892 35.192-23.653 87.475-90.378 142.015-161.976 158.632-128.209 28.928-187.596-63.808-187.596-63.808z" fill="#99e6fc" fill-rule="evenodd"/></g><g><path clip-rule="evenodd" d="m364.976 275.962c-96.746-12.843-162.012 70.097-161.983 158.626 71.603-16.618 138.33-71.151 161.983-158.626z" fill="#fece85" fill-rule="evenodd"/></g><g><path clip-rule="evenodd" d="m59.992 412.938c41.525 26.506 93.417 33.147 143.001 21.649 0-8.835.642-17.612 1.898-26.272-10.863 4.476-22.018 8.045-33.29 10.649-37.699 8.778-76.771 6.993-111.609-6.026z" fill="#2ed1e2" fill-rule="evenodd"/></g><g><path clip-rule="evenodd" d="m328.941 275.611c-22.456 65.416-69.909 110.441-124.049 132.705-1.256 8.66-1.898 17.437-1.898 26.272 71.603-16.617 138.329-71.151 161.983-158.626-12.587-1.668-24.618-1.726-36.036-.351z" fill="#fdb440" fill-rule="evenodd"/></g><g><path clip-rule="evenodd" d="m340.476 225.144c-1.518 12.258-3.855 23.99-6.892 35.195-1.402 5.208-2.949 10.298-4.643 15.272 11.418-1.375 23.449-1.317 36.035.351 3.037-11.205 5.344-22.937 6.892-35.195l.263-2.34c4.234-36.336-.321-66.704-10.659-91.015-14.951-35.224-42.051-57.693-72.099-67.143 16.879 11.995 31.246 29.198 40.707 51.52 10.337 24.312 14.893 54.68 10.688 91.015z" fill="#2ed1e2" fill-rule="evenodd"/></g><g><path d="m115.935 251.64c-.659 3.752-3.925 6.401-7.603 6.401-.443 0-.896-.041-1.35-.124-49.552-8.731-85.361-26.76-106.655-53.685-.103-1.629-.185-3.257-.227-4.865-.185-5.649-.113-11.257.196-16.761 2.483.093 4.883 1.392 6.294 3.659 17.554 28.492 52.23 47.469 103.07 56.427 4.204.743 7.007 4.742 6.275 8.948z" fill="#00b1cd"/></g><g><path d="m222.943 169.333c-.67 0-1.35-.088-2.028-.272-4.119-1.118-6.551-5.365-5.434-9.486 4.696-17.32 20.154-28.877 38.492-28.722 18.356.139 33.081 11.457 37.512 28.835 1.055 4.137-1.442 8.347-5.576 9.403-4.137 1.055-8.343-1.442-9.397-5.579-3.207-12.577-13.806-17.13-22.657-17.197-.061-.001-.124-.001-.186-.001-8.616 0-19.807 4.521-23.275 17.31-.932 3.443-4.049 5.709-7.451 5.709z" fill="#00b1cd"/></g><g><path clip-rule="evenodd" d="m445.661 182.547c1.811 1.463 2.745 2.253 3.65 2.282.905-.029 1.84-.819 3.679-2.282l48.3-47.951c14.28-14.833 14.28-39.115 0-53.948-12.995-13.458-33.962-10.093-47.833 2.428-2.541 2.311-3.446 3.481-4.147 3.452-.672.029-1.577-1.141-4.147-3.452-13.871-12.522-34.838-15.886-47.803-2.428-14.309 14.833-14.309 39.115 0 53.948z" fill="#fe0263" fill-rule="evenodd"/></g><g><path clip-rule="evenodd" d="m449.311 184.829c.934-.029 1.84-.819 3.679-2.282l48.3-47.951c5.081-5.295 8.352-11.761 9.812-18.578 2.657-12.317-.613-25.804-9.812-35.37-6.045-6.261-13.842-8.894-21.843-8.631 5.286 6.202 8.293 13.78 9.023 21.532 1.051 11-2.482 22.381-10.542 30.748l-45.467 45.142 13.199 13.107c1.811 1.464 2.746 2.254 3.651 2.283z" fill="#e30256" fill-rule="evenodd"/></g></g></svg>