<svg id="Capa_1" enable-background="new 0 0 512 512" height="512" viewBox="0 0 512 512" width="512" xmlns="http://www.w3.org/2000/svg"><g><g><path d="m160.294 76.115c-3.229 0-6.13-2.047-7.193-5.131l-20.994-60.892c-1.37-3.974.741-8.306 4.715-9.677 3.975-1.364 8.307.742 9.677 4.716l12.176 35.315 7.582-34.47c.902-4.105 4.962-6.696 9.069-5.799 4.106.903 6.702 4.963 5.798 9.069l-13.394 60.893c-.732 3.33-3.59 5.767-6.994 5.963-.148.009-.295.013-.442.013z" fill="#2b4d66"/></g><path d="m343.977 283.648h-285.629c-11.047 0-20.002-8.955-20.002-20.002v-113.786c0-67.352 54.599-121.951 121.951-121.951h81.731c67.352 0 121.951 54.599 121.951 121.951v113.787c0 11.046-8.955 20.001-20.002 20.001z" fill="#365e7d"/><path d="m242.028 27.909h-35.18c67.352 0 121.952 54.599 121.952 121.951v113.787c0 11.047-8.955 20.002-20.002 20.002h35.18c11.047 0 20.002-8.955 20.002-20.002v-113.787c-.001-67.352-54.6-121.951-121.952-121.951z" fill="#2b4d66"/><path d="m247.613 370.457h-19.08-54.741-19.08c-37.969 0-68.749 30.78-68.749 68.749v64.038c0 4.836 3.92 8.756 8.756 8.756h212.888c4.836 0 8.756-3.92 8.756-8.756v-64.038c-.001-37.969-30.781-68.749-68.75-68.749z" fill="#bc95e2"/><path d="m247.613 370.457h-33.498c37.969 0 68.749 30.78 68.749 68.749v64.038c0 4.836-3.92 8.756-8.756 8.756h33.498c4.836 0 8.756-3.92 8.756-8.756v-64.038c0-37.969-30.78-68.749-68.749-68.749z" fill="#ac80dd"/><path d="m220.324 319.764-36.759-2.162c-9.385 0-9.797 43.972-9.797 43.972v26.918c0 15.116 12.254 27.371 27.371 27.371 15.116 0 27.371-12.254 27.371-27.371v-26.918c-.002-.001 1.199-41.81-8.186-41.81z" fill="#eaac9d"/><path d="m201.163 370.457c-72.946 0-132.079-59.134-132.079-132.079v-69.737c0-1.918 1.559-3.466 3.478-3.47 61.129-.112 115.156-8.868 163.348-40.009 1.44-.93 3.364-.633 4.396.736 21.762 28.891 51.444 36.886 89.476 39.087 1.939.112 3.462 1.705 3.462 3.648v69.745c-.002 72.945-59.136 132.079-132.081 132.079z" fill="#ffcbbe"/><path d="m329.78 164.985c-11.191-.648-21.653-1.804-31.409-3.84v77.233c0 67.034-49.94 122.399-114.644 130.932 5.706.753 11.524 1.147 17.435 1.147 72.945 0 132.079-59.134 132.079-132.079v-69.745c.001-1.943-1.522-3.536-3.461-3.648z" fill="#eaac9d"/><path d="m379.803 140.337h-11.822c-45.304 0-82.029-36.726-82.029-82.029v-8.717c0-1.715 1.39-3.105 3.105-3.105h8.717c45.304 0 82.029 36.726 82.029 82.029z" fill="#ac80dd"/><path d="m379.803 140.337v-11.822c0-45.304 36.726-82.029 82.029-82.029h8.717c1.715 0 3.105 1.39 3.105 3.105v8.717c0 45.304-36.726 82.029-82.029 82.029z" fill="#ac80dd"/><path d="m379.803 140.337-8.359-8.359c-32.034-32.034-32.034-83.973 0-116.007l6.164-6.164c1.213-1.213 3.178-1.213 4.391 0l6.164 6.164c32.034 32.034 32.034 83.973 0 116.007z" fill="#bc95e2"/><g><g><path d="m251.656 236.763c-13.806 0-25.038-11.232-25.038-25.038 0-4.204 3.408-7.611 7.611-7.611 4.204 0 7.612 3.407 7.612 7.611 0 5.412 4.403 9.815 9.815 9.815s9.815-4.402 9.815-9.815c0-4.204 3.407-7.611 7.611-7.611s7.612 3.407 7.612 7.611c0 13.806-11.232 25.038-25.038 25.038z" fill="#365e7d"/></g><g><path d="m150.669 236.763c-13.806 0-25.038-11.232-25.038-25.038 0-4.204 3.408-7.611 7.612-7.611s7.611 3.407 7.611 7.611c0 5.412 4.403 9.815 9.815 9.815s9.815-4.402 9.815-9.815c0-4.204 3.408-7.611 7.611-7.611 4.204 0 7.611 3.407 7.611 7.611.001 13.806-11.231 25.038-25.037 25.038z" fill="#365e7d"/></g></g><g><path d="m201.163 329.44c-23.398 0-44.43-13.917-53.582-35.456-1.644-3.868.16-8.338 4.029-9.981 3.87-1.648 8.338.16 9.982 4.029 6.759 15.907 22.292 26.185 39.571 26.185s32.812-10.279 39.571-26.185c1.644-3.869 6.114-5.673 9.982-4.029 3.869 1.643 5.672 6.112 4.029 9.981-9.152 21.539-30.184 35.456-53.582 35.456z" fill="#da4a54"/></g></g></svg>