<svg enable-background="new 0 0 256 256" height="512" viewBox="0 0 256 256" width="512" xmlns="http://www.w3.org/2000/svg"><g id="Layer_39"><g><g><path d="m190.879 89.48c0-8.785 1.192-21.159-4.238-31.256-.841-1.563-1.168-3.352-.948-5.113.18-1.438.705-2.805 1.561-3.974 3.16-4.312 6.619-10.192 8.688-17.337 3.803-13.131-8.717-25.332-21.722-21.121-10.722 3.472-24.606 6.07-38.883 3.551-30.458-5.375-58.892 22.786-63.604 51.063-4.183 25.101 7.913 59.969 13.482 74.195 1.667 4.259 1.748 8.965.226 13.278l-1.045 2.96c-1.519 4.305-4.536 7.924-8.505 10.192-3.802 2.174-6.562 5.798-8.066 9.91l-.66 1.803c-2.927 8.001-7.928 15.01-14.197 20.781-10.492 9.656-17.069 23.499-17.069 38.883v16.205h149.845l.184-9.038c.476-21.692-11.979-36.24-22.256-45.874-3.593-3.369-6.388-7.489-8.141-12.092l-1.404-3.686c-.386-1.014-.885-1.853-1.44-2.547-3.403-4.25-5.254-9.528-4.546-14.932.345-2.632 3.043-4.274 5.572-3.47 3.543 1.126 6.633 2.039 9.335 2.766 8.284 2.228 17.443-.956 22.545-9.094 1.022-1.63 1.676-3.464 2.118-5.337.316-1.336.618-2.575.92-3.619.286-.986.136-2.037-.434-2.891l-1.129-1.694c-.909-1.364-.729-3.179.43-4.338l4.167-2.375c.645-.645 1.007-1.519 1.007-2.431v-8.755c0-1.386.824-2.639 2.105-3.168 2.057-.85 5.351-2.373 8.645-4.569 5.374-3.585-12.543-16.126-12.543-26.876z" fill="#9be5f9"/></g><g><path d="m136.141 44.747c-2.132-2.335-5.847-2.379-8.051-.112-7.198 7.405-11.635 17.506-11.635 28.648 0 10.679 4.073 20.404 10.748 27.713 2.132 2.335 5.847 2.379 8.051.112 7.198-7.405 11.635-17.505 11.635-28.648 0-10.678-4.073-20.403-10.748-27.713z" fill="#b598f9"/></g><g><path d="m146.889 72.46c0 2.617-.254 5.174-.721 7.655.97-.707 1.984-1.372 3.047-1.986 4.65-2.685 9.67-4.139 14.688-4.478 3.209-6.843 3.776-14.345 2.027-21.262-.6-2.371-3.105-3.778-5.436-3.038-5.998 1.903-11.446 5.581-15.491 10.801 1.219 3.887 1.886 8.019 1.886 12.308z" fill="#8652d8"/></g><g><path d="m113.549 78.129c1.249.721 2.427 1.516 3.547 2.365-.415-2.342-.641-4.75-.641-7.211 0-4.699.797-9.208 2.25-13.413-4.021-5.071-9.383-8.651-15.273-10.519-2.331-.74-4.837.667-5.436 3.038-1.757 6.949-1.176 14.491 2.075 21.36 4.613.479 9.202 1.911 13.478 4.38z" fill="#8652d8"/></g><g><path d="m173.524 74.365c-8.001-1.759-16.656-.654-24.31 3.764-1.063.614-2.077 1.279-3.047 1.986-1.524 8.081-5.406 15.328-10.913 20.993-.362.373-.775.659-1.205.907.628.995 1.624 1.758 2.859 2.03 8.001 1.759 16.656.655 24.309-3.764 7.986-4.611 13.389-11.97 15.718-20.193.714-2.517-.855-5.161-3.411-5.723z" fill="#966aea"/></g><g><path d="m127.204 100.996c-5.136-5.625-8.723-12.683-10.107-20.502-1.121-.848-2.299-1.644-3.547-2.365-7.653-4.419-16.309-5.523-24.31-3.764-2.556.562-4.124 3.206-3.412 5.724 2.329 8.223 7.732 15.582 15.718 20.193 7.653 4.419 16.309 5.523 24.31 3.764 1.201-.264 2.17-.997 2.801-1.951-.528-.284-1.028-.633-1.453-1.099z" fill="#966aea"/></g><g><path d="m185.745 256c-.018 0-.034 0-.052 0-1.381-.028-2.477-1.17-2.448-2.55l.184-9.039c.46-20.969-12.031-35.154-21.467-44-3.872-3.629-6.904-8.134-8.768-13.025l-1.404-3.686c-.268-.703-.623-1.333-1.056-1.874-4.033-5.038-5.835-11.011-5.073-16.82.258-1.966 1.373-3.708 3.058-4.779 1.717-1.092 3.813-1.365 5.751-.749 3.432 1.091 6.536 2.011 9.228 2.734 7.556 2.03 15.501-1.187 19.776-8.007.777-1.239 1.367-2.738 1.804-4.583.349-1.48.645-2.683.951-3.741.084-.287.044-.574-.112-.808l-1.129-1.694c-1.565-2.347-1.253-5.498.742-7.493.158-.158.336-.293.529-.404l3.78-2.155c.086-.144.132-.308.132-.48v-8.755c0-2.411 1.433-4.562 3.649-5.478 2.02-.835 5.054-2.249 8.099-4.263-.178-1.325-2.867-4.805-4.675-7.145-3.95-5.111-8.865-11.472-8.865-17.727 0-1.298.025-2.673.053-4.107.149-7.983.335-17.919-3.993-25.965-1.09-2.026-1.514-4.311-1.226-6.607.234-1.876.936-3.655 2.026-5.142 3.849-5.252 6.642-10.822 8.302-16.554 1.529-5.278.063-10.735-3.921-14.597-3.965-3.843-9.434-5.132-14.63-3.45-14.204 4.599-27.689 5.822-40.088 3.634-14.828-2.619-27.117 3.323-34.814 8.766-13.412 9.484-23.333 24.906-25.89 40.246-4.092 24.554 7.97 59.142 13.345 72.873 1.884 4.814 1.975 10.149.255 15.021l-1.045 2.96c-1.72 4.872-5.136 8.966-9.62 11.53-3.109 1.778-5.581 4.832-6.96 8.599l-.66 1.804c-2.96 8.093-7.957 15.414-14.851 21.76-10.335 9.512-16.263 23.014-16.263 37.044v16.206c0 1.381-1.119 2.5-2.5 2.5s-2.5-1.119-2.5-2.5v-16.205c0-15.424 6.516-30.267 17.876-40.723 6.302-5.8 10.857-12.462 13.542-19.8l.66-1.804c1.783-4.873 5.041-8.858 9.173-11.221 3.444-1.969 6.067-5.113 7.388-8.854l1.045-2.96c1.32-3.741 1.251-7.838-.196-11.535-5.526-14.117-17.916-49.735-13.62-75.517 2.768-16.609 13.472-33.279 27.935-43.506 11.979-8.47 25.678-11.883 38.57-9.607 11.584 2.045 24.262.878 37.678-3.467 6.989-2.26 14.334-.536 19.65 4.616 5.337 5.172 7.297 12.492 5.244 19.579-1.823 6.295-4.876 12.392-9.072 18.119-.589.803-.968 1.773-1.098 2.806-.158 1.261.073 2.512.668 3.618 4.948 9.2 4.749 19.861 4.589 28.428-.026 1.401-.052 2.745-.052 4.013 0 4.548 4.337 10.16 7.821 14.669 3.454 4.47 6.183 8 5.662 11.173-.21 1.28-.92 2.356-2.055 3.113-3.421 2.28-6.824 3.869-9.077 4.8-.34.14-.56.477-.56.857v8.755c0 1.586-.617 3.077-1.738 4.199-.158.158-.337.294-.53.405l-3.78 2.155c-.181.304-.178.694.025.999l1.129 1.694c.974 1.459 1.248 3.273.755 4.974-.278.957-.556 2.09-.889 3.498-.563 2.388-1.36 4.38-2.434 6.09-5.448 8.694-15.622 12.784-25.311 10.179-2.763-.743-5.94-1.684-9.442-2.797-.522-.166-1.09-.091-1.555.204-.254.162-.694.534-.783 1.21-.582 4.446.845 9.079 4.019 13.044.76.948 1.374 2.031 1.826 3.221l1.403 3.685c1.596 4.187 4.194 8.044 7.516 11.158 10.135 9.501 23.55 24.788 23.045 47.752l-.184 9.035c-.026 1.362-1.139 2.448-2.497 2.448z"/></g><g><path d="m52.269 28.5h2.3v2.3c0 1.8 1.4 3.2 3.2 3.2 1.7 0 3.2-1.4 3.2-3.1v-.1-2.3h2.3c1.8 0 3.2-1.4 3.2-3.2 0-1.7-1.4-3.2-3.1-3.2h-.1-2.3v-2.3c0-1.8-1.4-3.2-3.2-3.2-1.7 0-3.2 1.4-3.2 3.1v.1 2.3h-2.3c-1.8 0-3.2 1.4-3.2 3.2-.1 1.7 1.3 3.2 3.2 3.2-.1 0-.1 0 0 0z" fill="#87d147"/></g><g><circle cx="203.669" cy="229.6" fill="#70d6f9" r="3.4"/></g><g><circle cx="91.669" cy="3.4" fill="#f5c84c" r="3.4"/></g><g><path d="m219.451 87.2c-3.1-.6-5.6-3-6.2-6.1 0-.1-.3-.1-.3 0-.6 3.1-3.1 5.5-6.2 6.1-.1 0-.1.2 0 .3 3.1.6 5.6 3 6.2 6.1 0 .1.3.1.3 0 .6-3.1 3.1-5.5 6.2-6.1.1-.1.1-.3 0-.3z" fill="#fc657e"/></g><g><path d="m204.251 200.2c4.5-.8 8-4.3 8.9-8.7 0-.2.4-.2.4 0 .9 4.4 4.4 7.9 8.9 8.7.2 0 .2.3 0 .4-4.5.8-8 4.3-8.9 8.7 0 .2-.4.2-.4 0-.9-4.4-4.4-7.9-8.9-8.7-.2-.1-.2-.4 0-.4z" fill="#f5c84c"/></g><g><path d="m131.275 105.279c-.042 0-.084 0-.126-.001-2.206-.035-4.317-.981-5.792-2.596-7.353-8.052-11.401-18.493-11.401-29.399 0-11.41 4.383-22.203 12.342-30.391 1.534-1.577 3.7-2.462 5.897-2.427 2.206.035 4.317.98 5.792 2.596 7.353 8.052 11.401 18.493 11.401 29.399 0 11.41-4.383 22.203-12.341 30.391-1.504 1.547-3.601 2.428-5.772 2.428zm.791-59.815c-.836 0-1.609.323-2.183.913-7.047 7.249-10.928 16.804-10.928 26.905 0 9.656 3.585 18.899 10.094 26.027.559.611 1.331.955 2.178.968.851.028 1.649-.31 2.234-.913 7.046-7.249 10.927-16.804 10.927-26.905 0-9.656-3.585-18.899-10.094-26.028-.001 0-.001 0-.001 0-.557-.61-1.33-.954-2.177-.967-.015 0-.033 0-.05 0z"/></g><g><path d="m164.255 75.372c-.334 0-.674-.067-1-.209-1.265-.553-1.843-2.026-1.29-3.292 2.578-5.903 3.125-12.604 1.541-18.869-.12-.477-.43-.874-.87-1.119-.252-.14-.764-.347-1.386-.149-5.493 1.743-10.303 5.024-13.908 9.49-.868 1.073-2.439 1.241-3.516.375-1.074-.867-1.242-2.441-.375-3.516 4.224-5.232 9.855-9.076 16.287-11.115 1.763-.558 3.705-.358 5.33.546 1.633.909 2.83 2.462 3.285 4.262 1.854 7.334 1.213 15.181-1.807 22.095-.409.941-1.328 1.501-2.291 1.501z"/></g><g><path d="m99.854 75.776c-.951 0-1.86-.545-2.278-1.468-3.188-7.029-3.899-15.031-2.003-22.531.455-1.8 1.652-3.353 3.286-4.262 1.628-.905 3.572-1.104 5.33-.546 6.313 2.002 11.868 5.75 16.064 10.84.879 1.065.727 2.641-.339 3.52-1.063.877-2.64.727-3.519-.339-3.582-4.345-8.325-7.545-13.719-9.255-.619-.197-1.136.009-1.387.149-.44.245-.75.643-.87 1.119-1.62 6.406-1.013 13.239 1.708 19.241.57 1.257.014 2.739-1.244 3.309-.334.152-.685.223-1.029.223z"/></g><g><path d="m144.232 107.343c-2.622 0-5.256-.283-7.861-.855-1.443-.317-2.732-1.076-3.727-2.193-.918-1.032-.825-2.612.207-3.53 1.03-.917 2.611-.825 3.529.207.201.227.549.52 1.063.633 7.696 1.691 15.696.454 22.523-3.487 7.143-4.124 12.313-10.768 14.563-18.709.156-.553.076-1.135-.226-1.64-.298-.498-.766-.839-1.317-.96-7.697-1.691-15.695-.454-22.522 3.488-.85.49-1.702 1.04-2.534 1.633-1.126.801-2.686.539-3.487-.585-.801-1.125-.539-2.686.585-3.487.962-.685 1.95-1.321 2.937-1.891 7.91-4.565 17.178-5.999 26.097-4.041 1.883.415 3.535 1.609 4.534 3.277 1.002 1.674 1.273 3.705.745 5.569-2.604 9.201-8.598 16.899-16.873 21.677-5.6 3.23-11.88 4.894-18.236 4.894z"/></g><g><path d="m118.531 107.343c-6.355 0-12.636-1.663-18.235-4.896-8.275-4.779-14.269-12.477-16.873-21.677-.528-1.865-.257-3.895.745-5.569.999-1.668 2.651-2.863 4.534-3.277 8.92-1.96 18.188-.526 26.097 4.042 1.117.645 2.24 1.38 3.338 2.187 1.113.817 1.353 2.382.536 3.495-.818 1.113-2.384 1.351-3.495.536-.951-.698-1.92-1.333-2.879-1.887-6.826-3.94-14.824-5.182-22.522-3.488-.552.121-1.02.462-1.317.96-.302.505-.382 1.087-.226 1.64 2.249 7.941 7.42 14.585 14.563 18.709 6.827 3.941 14.824 5.181 22.522 3.487.551-.121.913-.452 1.121-.709.867-1.074 2.44-1.243 3.516-.373 1.074.868 1.241 2.442.373 3.516-1.019 1.261-2.38 2.108-3.936 2.45-2.605.571-5.241.854-7.862.854z"/></g></g></g></svg>