<svg id="Capa_1" enable-background="new 0 0 511.998 511.998" height="512" viewBox="0 0 511.998 511.998" width="512" xmlns="http://www.w3.org/2000/svg"><g><g><path d="m87.761 332.067c0 93.159 76.219 170.539 169.379 169.928 91.294-.602 167.099-77.044 167.099-168.238v-65.593c0-17.7-14.35-32.05-32.05-32.05h-35.24v-157.805c0-19.82-15.64-33.66-33.65-33.66-18.59 0-33.65 15.07-33.65 33.64v-34.63c0-18.68-15.827-34.115-34.5-33.65-18.36.46-32.79 15.95-32.79 34.32v238.645c0 18.59-15.07 33.66-33.65 33.66-18.344.008-33.66-15.315-33.66-33.66v-155.216c0-18.58-15.05-33.65-33.65-33.65-18.57 0-33.64 15.07-33.64 33.65v204.309z" fill="#ffdad5"/></g><g><path d="m188.705 316.632c-18.34.003-33.655-15.311-33.655-33.655v-81.967c0-18.587 15.068-33.655 33.655-33.655 18.587 0 33.655 15.068 33.655 33.655v81.968c0 18.587-15.068 33.654-33.655 33.654z" fill="#ffdad5"/></g><g><path d="m406.631 228.67c-4.506-1.653-9.371-2.556-14.443-2.556h-25.239v-147.805c0-24.482-19.173-43.66-43.649-43.66-8.729 0-16.866 2.574-23.695 7.004-1.05-23.401-21.338-42.2-44.705-41.641-23.457.588-42.54 20.468-42.54 44.317v120.02c-6.822-4.417-14.941-6.993-23.655-6.993-8.713 0-16.832 2.576-23.653 6.992v-36.591c0-.027-.004-.053-.004-.08-.044-24.031-19.606-43.568-43.647-43.568-24.063 0-43.64 19.581-43.64 43.649v59.275c0 5.522 4.477 10 10 10s10-4.478 10-10v-59.275c0-13.04 10.605-23.649 23.64-23.649 13.041 0 23.649 10.609 23.649 23.649v155.216c.13 23.76 19.796 43.659 43.66 43.659 19.979 0 37.901-14.191 42.482-33.659 11.649 11.664 27.74 18.89 45.488 18.89h54.989v49.55c0 5.522 4.478 10 10 10s10-4.478 10-10v-59.55c0-5.522-4.478-10-10-10h-64.989c-24.99 0-44.65-21.099-44.319-45.749h159.828c11.988 0 22.05 10.06 22.05 22.05v65.592c0 86.175-71.895 158.242-158.199 158.242-86.518-.004-158.278-73.918-158.278-159.932v-57.041c0-5.522-4.477-10-10-10s-10 4.478-10 10v57.041c0 96.917 80.847 179.934 178.274 179.932 97.214 0 178.203-81.18 178.203-178.242v-65.592c.001-17.446-11.231-33.487-27.608-39.495zm-83.332-174.021c11.465 0 23.649 8.292 23.649 23.66v147.806h-47.296v-147.823c0-.018-.003-.035-.003-.053.028-13.012 10.626-23.59 23.65-23.59zm-134.594 122.706c13.043 0 23.655 10.611 23.655 23.654v81.965c0 12.862-10.784 23.658-23.655 23.658-12.852 0-23.655-10.787-23.655-23.658l.002-82.042c.042-13.007 10.635-23.577 23.653-23.577zm43.655-133.026c0-13.093 10.336-24.004 23.039-24.322 13.133-.306 24.25 10.499 24.25 23.652l.004 182.456h-47.293z"/><path d="m78.529 233.869c1.636 3.925 5.709 6.476 9.964 6.147 4.347-.336 8.054-3.522 9.021-7.779 1.982-8.722-8.194-15.505-15.508-10.367-3.778 2.656-5.254 7.73-3.477 11.999z"/></g></g></svg>