<svg id="Capa_1" enable-background="new 0 0 512 512" height="512" viewBox="0 0 512 512" width="512" xmlns="http://www.w3.org/2000/svg"><g><path d="m384.15 300.649c-21.845 43.036-72.271 70.884-128.15 90.253-22.728-45.939-35.037-93.185-12.41-137.764 26.685-52.571 87.905-102.706 140.18-125.029 3.922-1.675 8.475.239 9.964 4.235 17.176 46.107 16.168 117.571-9.584 168.305z" fill="#eebfdb"/><path d="m127.85 300.649c21.845 43.036 72.271 70.884 128.15 90.253 22.728-45.939 35.037-93.185 12.41-137.764-26.685-52.571-87.905-102.706-140.18-125.029-3.922-1.675-8.475.239-9.964 4.235-17.176 46.107-16.168 117.571 9.584 168.305z" fill="#eebfdb"/><path d="m256 477.153c-43.719 0-74.296-10.617-106.669-21.858-37.504-13.023-76.285-26.489-141.831-26.489-4.142 0-7.5-3.358-7.5-7.5s3.358-7.5 7.5-7.5c68.076 0 109.874 14.514 146.751 27.318 60.56 21.028 80.567 21.028 101.749 21.028 41.188 0 70.604-10.214 101.748-21.028 36.878-12.805 78.676-27.318 146.752-27.318 4.143 0 7.5 3.358 7.5 7.5s-3.357 7.5-7.5 7.5c-65.546 0-104.327 13.466-141.831 26.488-32.373 11.242-62.95 21.859-106.669 21.859z" fill="#cde2ff"/><circle cx="256" cy="42.847" fill="#eebfdb" r="8"/><path d="m477.952 342.138c-40.476-18.617-87.955-33.452-124.453-33.452l-83.255 70.205c10.177 13.772 34.156 23.001 62.513 23.001 52.112.001 117.598-26.951 145.195-59.754z" fill="#cce8b0"/><path d="m332.756 391.893c-28.357 0-49.634-7.068-62.513-13.001l-14.243 12.01s27.894 20.991 76.756 20.991c55.653 0 106.068-22.019 154.455-52.622 4.964-3.14 4.591-10.527-.694-13.089-2.815-1.364-5.673-2.713-8.565-4.044-45.563 28.175-93.083 49.755-145.196 49.755z" fill="#acd980"/><path d="m34.048 342.138c40.476-18.617 87.955-33.452 124.453-33.452l83.255 70.205c-10.177 13.772-34.156 23.001-62.513 23.001-52.112.001-117.598-26.951-145.195-59.754z" fill="#cce8b0"/><path d="m179.244 391.893c28.357 0 49.634-7.068 62.513-13.001l14.243 12.01s-27.894 20.991-76.756 20.991c-55.653 0-106.068-22.019-154.455-52.622-4.964-3.14-4.591-10.527.694-13.089 2.815-1.364 5.673-2.713 8.565-4.044 45.563 28.175 93.083 49.755 145.196 49.755z" fill="#acd980"/><path d="m105.621 344.945c46.699 26.501 100.598 35.592 150.379 35.957 46.484-.341 112.425-13.167 149.286-43.247 43.081-35.156 77.879-92.714 88.659-148.875-47.927 4.029-109.231 22.911-156.445 51.436-5.819-56.31-38.938-119.564-76.27-155.937-2.923-2.848-7.57-2.816-10.498.028-37.42 36.36-70.6 98.514-76.279 155.991-47.251-28.308-110.021-47.87-158.109-51.656-4.739-.373-8.604 3.736-7.996 8.45 3.304 25.629 14.394 55.905 31.471 84.547 16.807 22.251 39.273 48.251 65.802 63.306z" fill="#f9dbeb"/><path d="m493.945 188.78c-15.859 45.415-45.577 103.719-88.659 138.875-36.861 30.08-102.803 42.906-149.286 43.247-49.781-.365-103.68-9.456-150.379-35.957-26.529-15.055-49.125-35.551-65.803-53.308 14.617 24.517 33.617 47.838 55.895 66.017 41.698 34.027 99.742 42.803 160.286 43.247 60.545-.444 120.031-10.397 160.286-43.247 46.945-38.309 81.066-102.849 87.35-150.538.624-4.737-3.266-8.843-8.029-8.472-.552.045-1.105.09-1.661.136z" fill="#eebfdb"/><path d="m203.003 260.103c-8.55-6.977-18.186-13.597-28.55-19.806-.563 5.696-.862 11.346-.862 16.92 0 43.012 24.602 79.825 58.991 112.852 8.272 4.809 18.913 4.643 22.503.821-3.462-42.269-17.285-82.391-52.082-110.787z" fill="#eebfdb"/><path d="m232.582 370.069c7.404 7.111 15.253 14.049 23.418 20.833-.074-6.699-.371-13.381-.914-20.012-7.424-.07-14.937-.332-22.504-.821z" fill="#e8a2cb"/><path d="m338.409 257.217c0-5.57-.315-11.25-.909-17.001-10.255 6.196-19.861 12.835-28.503 19.887-36.027 29.399-48.946 68.758-52.147 110.786 6.451 4.655 14.432 2.832 22.745-1.131 34.297-33.373 58.814-71.088 58.814-112.541z" fill="#eebfdb"/><path d="m256 390.902c8.229-6.837 16.139-13.89 23.595-21.145-7.919.686-15.557 1.056-22.745 1.131-.504 6.616-.776 13.295-.85 20.014z" fill="#e8a2cb"/></g></svg>