<svg id="Capa_1" enable-background="new 0 0 497 497" height="512" viewBox="0 0 497 497" width="512" xmlns="http://www.w3.org/2000/svg"><g><path d="m225.299 443.589h-105.765c-32.855 0-59.489-26.634-59.489-59.489v-49.361c0-19.321 4.925-38.323 14.31-55.212l45.504-81.888h105.44z" fill="#978ecb"/><path d="m225.299 197.641v245.95h-105.77c-4.17 0-8.23-.43-12.16-1.25-27.02-5.61-47.32-29.56-47.32-58.24v-49.36c0-19.32 4.92-38.32 14.31-55.21l45.5-81.89z" fill="#aca6d6"/><path d="m271.701 443.589h105.766c32.855 0 59.489-26.634 59.489-59.489v-49.361c0-19.321-4.925-38.323-14.31-55.212l-45.504-81.888h-105.44v245.95z" fill="#aca6d6"/><path d="m422.645 279.527-45.504-81.888h-21.201l45.504 81.888c9.385 16.889 14.31 35.891 14.31 55.212v49.361c0 32.855-26.634 59.489-59.489 59.489h21.201c32.855 0 59.489-26.634 59.489-59.489v-49.361c0-19.321-4.925-38.323-14.31-55.212z" fill="#978ecb"/><path d="m225.299 197.641v245.95h-105.77c-4.17 0-8.23-.43-12.16-1.25-5.32-8.78-8.39-19.07-8.39-30.09v-100.541c0-9.49 1.25-18.94 3.73-28.11l23.25-85.96h99.34z" fill="#978ecb"/><path d="m318.598 470.331h-140.177c-32.078 0-58.083-26.004-58.083-58.083v-100.54c0-9.492 1.256-18.943 3.734-28.106l23.252-85.963h202.371l23.252 85.963c2.478 9.163 3.734 18.613 3.734 28.106v100.54c0 32.079-26.005 58.083-58.083 58.083z" fill="#aca6d6"/><path d="m372.947 283.603-23.252-85.964h-21.201l23.252 85.964c2.478 9.163 3.734 18.613 3.734 28.105v100.54c0 32.078-26.004 58.083-58.083 58.083h21.201c32.078 0 58.083-26.004 58.083-58.083v-100.54c0-9.492-1.256-18.942-3.734-28.105z" fill="#978ecb"/><path d="m333.297 346.195-6.521-148.555h-156.534l-6.521 148.555c-1.404 33.687 25.531 61.765 59.257 61.765h51.061c33.728 0 60.663-28.079 59.258-61.765z" fill="#d8ecfe"/><path d="m333.297 346.195-6.521-148.555h-21.201l6.521 148.555c1.404 33.687-25.531 61.765-59.257 61.765h21.201c33.727 0 60.662-28.079 59.257-61.765z" fill="#b3dafe"/><path d="m414.365 10.988-16.317 57.947-2.444 68.502-53.86 72.715-93.235-10.302-93.235 10.302-53.86-72.715-2.444-68.502-16.316-57.947c-1.991-7.069 5.203-13.242 11.892-10.187l51.395 23.427c3.034 1.38 6.152 2.528 9.333 3.424l.011.011 93.225 34.188 93.225-34.188.011-.011c3.181-.895 6.299-2.044 9.333-3.424l51.395-23.427c6.687-3.055 13.882 3.118 11.891 10.187z" fill="#aca6d6"/><g><path d="m402.472.801-9.697 4.42c.751 1.708.972 3.695.389 5.766l-16.317 57.947-2.444 68.502-52.256 70.55 19.597 2.165 53.86-72.715 2.444-68.502 16.317-57.947c1.991-7.068-5.204-13.241-11.893-10.186z" fill="#978ecb"/></g><circle cx="155.274" cy="153.858" fill="#d8ecfe" r="56.298"/><path d="m155.274 97.56c-3.625 0-7.166.356-10.6 1.011 26.023 4.96 45.698 27.82 45.698 55.288s-19.675 50.327-45.698 55.288c3.435.655 6.975 1.01 10.6 1.01 31.093 0 56.298-25.206 56.298-56.298s-25.205-56.299-56.298-56.299z" fill="#b3dafe"/><circle cx="155.274" cy="153.858" fill="#72848e" r="27.415"/><path d="m155.274 126.442c-3.758 0-7.339.758-10.6 2.126 9.877 4.145 16.815 13.906 16.815 25.289s-6.938 21.144-16.815 25.289c3.261 1.369 6.842 2.126 10.6 2.126 15.141 0 27.415-12.274 27.415-27.416s-12.274-27.414-27.415-27.414z" fill="#596c76"/><circle cx="341.745" cy="153.858" fill="#d8ecfe" r="56.298"/><path d="m341.745 97.56c-3.625 0-7.166.356-10.6 1.011 26.023 4.96 45.698 27.82 45.698 55.288s-19.675 50.327-45.698 55.288c3.435.655 6.975 1.01 10.6 1.01 31.093 0 56.298-25.206 56.298-56.298s-25.205-56.299-56.298-56.299z" fill="#b3dafe"/><circle cx="341.745" cy="153.858" fill="#72848e" r="27.415"/><path d="m341.745 126.442c-3.758 0-7.339.758-10.6 2.126 9.877 4.145 16.815 13.906 16.815 25.289s-6.938 21.144-16.815 25.289c3.261 1.369 6.842 2.126 10.6 2.126 15.141 0 27.415-12.274 27.415-27.416s-12.274-27.414-27.415-27.414z" fill="#596c76"/><path d="m341.734 27.663-60.636 67.936c-10.306 11.546-17.305 25.66-20.259 40.852l-12.33 63.399-12.33-63.399c-2.955-15.192-9.954-29.305-20.259-40.852l-60.636-67.936c8.553 2.444 17.549 3.139 26.451 2.022l44.801-5.646c14.589-1.843 29.358-1.843 43.947 0l44.801 5.646c8.901 1.117 17.897.421 26.45-2.022z" fill="#528fd8"/><g><path d="m318.446 30.001-58.549 65.598c-10.306 11.546-17.305 25.66-20.259 40.852l-1.729 8.892 10.6 54.507 12.33-63.399c2.955-15.192 9.954-29.305 20.259-40.852l60.636-67.937c-7.541 2.155-15.427 2.946-23.288 2.339z" fill="#0473ce"/></g><g><path d="m205.462 497h-12.912c-8.556 0-15.492-6.936-15.492-15.492v-30.379c0-8.556 6.936-15.492 15.492-15.492h12.912c8.556 0 15.492 6.936 15.492 15.492v30.379c0 8.556-6.936 15.492-15.492 15.492z" fill="#ffcebf"/><path d="m205.462 435.637h-12.912c-1.438 0-2.823.211-4.144.578 6.54 1.814 11.347 7.796 11.347 14.914v30.379c0 7.118-4.807 13.1-11.347 14.914 1.321.366 2.707.578 4.144.578h12.912c8.556 0 15.492-6.936 15.492-15.492v-30.379c0-8.556-6.936-15.492-15.492-15.492z" fill="#f0bdb1"/><path d="m304.468 497h-12.912c-8.556 0-15.492-6.936-15.492-15.492v-30.379c0-8.556 6.936-15.492 15.492-15.492h12.912c8.556 0 15.492 6.936 15.492 15.492v30.379c0 8.556-6.936 15.492-15.492 15.492z" fill="#ffcebf"/><path d="m304.468 435.637h-12.912c-1.438 0-2.823.211-4.144.578 6.54 1.814 11.347 7.796 11.347 14.914v30.379c0 7.118-4.807 13.1-11.347 14.914 1.321.366 2.707.578 4.144.578h12.912c8.556 0 15.492-6.936 15.492-15.492v-30.379c0-8.556-6.936-15.492-15.492-15.492z" fill="#f0bdb1"/></g><path d="m262.921 201.262-8.796 20.034c-2.147 4.89-9.084 4.89-11.231 0l-8.796-20.034v-19.023c0-6.586 5.339-11.925 11.925-11.925h4.974c6.586 0 11.925 5.339 11.925 11.925v19.023z" fill="#fef6ad"/><g><g><path d="m216.36 296.791c-6.274 0-12.548-2.389-17.324-7.164l-5.717-5.718c-2.929-2.929-2.928-7.678 0-10.606 2.929-2.928 7.678-2.929 10.607.001l5.716 5.717c3.704 3.704 9.731 3.703 13.435-.001l5.716-5.716c2.929-2.93 7.677-2.929 10.607-.001 2.929 2.929 2.929 7.678 0 10.606l-5.716 5.717c-4.776 4.776-11.05 7.165-17.324 7.165z" fill="#b3dafe"/></g><g><path d="m280.658 296.791c-6.274 0-12.548-2.389-17.324-7.164l-5.717-5.718c-2.929-2.929-2.928-7.678 0-10.606 2.929-2.928 7.677-2.929 10.607.001l5.716 5.717c3.703 3.704 9.731 3.703 13.435-.001l5.716-5.716c2.929-2.93 7.677-2.929 10.607-.001 2.929 2.929 2.929 7.678 0 10.606l-5.716 5.717c-4.776 4.776-11.05 7.165-17.324 7.165z" fill="#b3dafe"/></g></g><g><g><path d="m216.36 370.579c-6.274 0-12.548-2.389-17.324-7.164l-5.717-5.718c-2.929-2.929-2.928-7.678 0-10.606 2.929-2.929 7.678-2.928 10.607.001l5.716 5.717c3.704 3.703 9.731 3.704 13.435-.001l5.716-5.716c2.929-2.93 7.677-2.929 10.607-.001 2.929 2.929 2.929 7.678 0 10.606l-5.716 5.717c-4.776 4.776-11.05 7.165-17.324 7.165z" fill="#b3dafe"/></g><g><path d="m280.658 370.579c-6.274 0-12.548-2.389-17.324-7.164l-5.717-5.718c-2.929-2.929-2.928-7.678 0-10.606s7.677-2.928 10.607.001l5.716 5.717c3.703 3.703 9.731 3.704 13.435-.001l5.716-5.716c2.929-2.93 7.677-2.929 10.607-.001 2.929 2.929 2.929 7.678 0 10.606l-5.716 5.717c-4.776 4.776-11.05 7.165-17.324 7.165z" fill="#b3dafe"/></g></g></g></svg>