<svg id="Layer_1" enable-background="new 0 0 508.4 508.4" height="512" viewBox="0 0 508.4 508.4" width="512" xmlns="http://www.w3.org/2000/svg"><g><path d="m384.468 8.723-10.894 6.148c-1.036.585-.773 2.145.397 2.357l10.496 1.908v-10.413z" fill="#87afb9"/><g id="XMLID_3059_"><path d="m184.469 452.958c-3.066-16.943 8.183-33.164 25.125-36.23l54.208-9.811c-6.076-3.694-56.562-25.58-56.562-25.58l78.415-31.727 151.577 27.966c14.807 2.732 25.545 15.655 25.52 30.711s-10.808 27.943-25.624 30.625l-216.428 39.172c-16.875 3.053-33.152-8.113-36.231-25.126z" fill="#414b82"/></g><g id="XMLID_3056_"><path d="m259.016 506.795-197.615-65.785c-13.135-4.373-21.813-16.884-21.308-30.719.506-13.835 10.074-25.679 23.494-29.081l132.938-33.703 50.68 50.958-65.08 17.017 96.586 32.153c16.336 5.438 25.171 23.091 19.733 39.427-5.438 16.332-23.087 25.173-39.428 19.733z" fill="#5f6e9b"/></g><g fill="#ffb69e"><ellipse cx="242.092" cy="100.966" rx="53.844" ry="53.844" transform="matrix(.707 -.707 .707 .707 -.487 200.757)"/><path d="m271.905 171.973h-58.207l-.449 4.005c-1.974 17.622 11.816 33.043 29.548 33.043 17.708 0 31.49-15.381 29.555-32.983z"/><path d="m109.813 262.741-39.568-26.145c-11.972-7.91-28.087-4.618-35.998 7.354-7.91 11.971-4.618 28.088 7.354 35.998l79.87 52.774c17.158 11.336 40.302-.897 40.302-21.676v-17.518z"/><path d="m453.069 239.906c-8.06-11.87-24.216-14.961-36.087-6.9l-42.712 29-51.96 31.523v17.518c0 20.921 23.435 33.131 40.573 21.494l83.286-56.547c11.87-8.06 14.959-24.217 6.9-36.088z"/></g><g><path d="m374.269 233.146c-.169-33.731-28.18-61.173-62.44-61.173h-39.923c.105 15.326-14.206 28.202-29.142 28.202-16.009 0-27.937-12.829-29.065-28.202h-41.344c-34.315 0-62.371 27.442-62.541 61.173v.13 29.466l39.884 30.787h12.076v-60.167c.055-4.941 5.084-9.429 10.581-9.429h.63v134.136c0 23.958 19.422 43.38 43.38 43.38h51.358c23.98 0 43.411-19.456 43.38-43.436l-.183-134.08h.909c5.444 0 10.425 4.488 10.48 9.429v60.167h18.561l33.399-31.523v-28.729c0-.045 0-.088 0-.131z" fill="#64afff"/></g><path d="m471.498 76.952-51.99-43.103c-6.701-5.556-10.759-13.539-11.846-22.175-.008-.064-.017-.129-.026-.194-.836-5.98-5.761-10.745-11.764-11.398-8.074-.878-14.903 5.423-14.903 13.319 0 3.374 1.248 6.453 3.307 8.805 4.899 5.596 7.795 12.661 7.795 20.098 0 22.946 18.601 41.547 41.547 41.547h35.392c3.651.001 5.299-4.569 2.488-6.899z" fill="#a5c8cd"/><g><path d="m432.728 26.389-18.147 18.147c12.628 12.628 33.103 12.628 45.731 0l18.147-18.147c-12.628-12.628-33.103-12.628-45.731 0z" fill="#c8e6eb"/></g></g></svg>