<svg id="Capa_1" enable-background="new 0 0 512 512" height="512" viewBox="0 0 512 512" width="512" xmlns="http://www.w3.org/2000/svg"><g><g><g><path d="m78.887 136.221c-1.179 0-2.377-.144-3.572-.445l-61.418-15.474c-5.186-1.307-9.24-5.348-10.562-10.53s.3-10.672 4.226-14.303l63.442-58.689-32.021-8.068c-7.806-1.967-12.54-9.889-10.573-17.695 1.966-7.806 9.891-12.537 17.694-10.572l58.1 14.638c5.186 1.307 9.24 5.348 10.562 10.53 1.323 5.182-.299 10.672-4.225 14.303l-63.442 58.689 35.339 8.904c7.806 1.967 12.54 9.889 10.573 17.695-1.665 6.61-7.603 11.017-14.123 11.017z" fill="#8ac9fe"/></g></g><g><g><path d="m110.54 39.913-63.44 58.69 35.339 8.904c7.804 1.964 12.534 9.891 10.57 17.695-1.666 6.611-7.598 11.022-14.117 11.022-1.182 0-2.385-.144-3.578-.452l-8.277-2.087c2.005-8.349-3.085-16.78-11.434-18.888l-18.296-4.605c-8.487-2.136-11.199-12.85-4.75-18.767l60.647-55.645c4.226-3.907 5.974-9.819 4.555-15.402-.843-3.29-2.714-6.159-5.254-8.246l11.701 2.951c5.182 1.306 9.233 5.347 10.56 10.529 1.326 5.181-.299 10.671-4.226 14.301z" fill="#60b7ff"/></g></g><g><g><path d="m464.127 511.08c-3.897 1.067-8.121.371-11.503-2.001-4.121-2.891-6.329-7.807-5.751-12.808l5.357-46.358-11.405 5.685c-6.779 3.382-15.02.624-18.4-6.159-3.381-6.782-.623-15.02 6.159-18.4l34.062-16.979c4.504-2.248 9.879-1.844 14 1.047s6.329 7.807 5.751 12.808l-5.357 46.358 13.351-6.655c6.775-3.383 15.019-.624 18.4 6.159 3.381 6.782.623 15.02-6.159 18.4l-36.008 17.949c-.808.403-1.645.721-2.497.954z" fill="#8ac9fe"/></g></g><g><g><path d="m502.633 492.176-7.917 3.948c-.195-.607-.442-1.203-.73-1.789-3.383-6.786-11.619-9.542-18.395-6.159l-.891.444c-5.365 2.672-11.555-1.671-10.866-7.625l3.758-32.517c.586-5.007-1.625-9.922-5.748-12.811s-9.501-3.3-14.004-1.049l-26.147 13.038c-2.139-6.385.699-13.521 6.889-16.616l34.064-16.976c4.504-2.252 9.881-1.851 14.004 1.038 4.113 2.9 6.323 7.814 5.748 12.811l-5.357 46.361 13.346-6.652c6.776-3.383 15.022-.627 18.405 6.149 3.382 6.787.627 15.023-6.159 18.405z" fill="#60b7ff"/></g></g><path d="m330.398 66.221c-5.223 0-10.21.998-14.795 2.797-8.687-19.379-28.131-32.886-50.743-32.886s-42.056 13.507-50.743 32.886c-4.585-1.798-9.572-2.797-14.795-2.797-22.395 0-40.55 18.155-40.55 40.55s18.155 40.55 40.55 40.55c11.774 0 22.372-5.023 29.78-13.037 9.667 8.131 22.137 13.037 35.758 13.037s26.091-4.906 35.758-13.037c7.408 8.014 18.005 13.037 29.78 13.037 22.395 0 40.55-18.155 40.55-40.55.001-22.395-18.155-40.55-40.55-40.55z" fill="#d9e7ec"/><path d="m370.846 103.819c1.34 18.877-10.262 35.251-26.823 41.155 5.39-7.172 8.46-16.181 8.093-25.924-.762-20.25-16.72-37.034-36.905-38.826-3.53-.313-6.973-.161-10.28.392-4.795.801-9.622-1.277-12.276-5.351-9.912-15.217-27.079-25.287-46.599-25.287-8.113 0-15.824 1.748-22.775 4.884 10.169-11.485 25.026-18.734 41.58-18.734 22.61 0 42.053 13.511 50.742 32.892 5.543-2.175 11.672-3.178 18.096-2.665 19.798 1.584 35.741 17.653 37.147 37.464z" fill="#c5d3dd"/><path d="m448.685 118.989c-4.732 0-9.251.905-13.405 2.534-7.87-17.558-25.488-29.796-45.975-29.796s-38.104 12.238-45.975 29.796c-4.154-1.629-8.673-2.534-13.405-2.534-20.291 0-36.74 16.449-36.74 36.74s16.449 36.74 36.74 36.74c10.668 0 20.27-4.551 26.981-11.812 8.759 7.367 20.057 11.812 32.398 11.812s23.639-4.445 32.398-11.812c6.712 7.261 16.314 11.812 26.981 11.812 20.291 0 36.74-16.449 36.74-36.74.002-20.291-16.447-36.74-36.738-36.74z" fill="#f5f8f9"/><path d="m485.421 155.729c0 12.04-5.789 22.723-14.734 29.427.843-3.136 1.285-6.436 1.285-9.84 0-21.058-17.078-38.126-38.126-38.126-2.105 0-4.169.172-6.179.501-4.623.758-9.231-1.379-11.814-5.288-9.354-14.156-25.398-23.499-43.627-23.499-9.387 0-18.209 2.478-25.818 6.817 8.863-14.395 24.759-23.998 42.896-23.998 20.492 0 38.105 12.246 45.971 29.797 4.154-1.625 8.678-2.529 13.408-2.529 20.297.001 36.738 16.452 36.738 36.738z" fill="#e8edf2"/><circle cx="230.618" cy="310.679" fill="#dff6fd" r="201.32"/><path d="m431.934 310.679c0 111.189-90.132 201.321-201.311 201.321-34.085 0-66.195-8.472-94.327-23.422 23.165 9.295 48.449 14.405 74.935 14.405 111.189 0 201.321-90.132 201.321-201.321 0-77.084-43.328-144.051-106.964-177.878 74.062 29.735 126.346 102.202 126.346 186.895z" fill="#c8effe"/><path d="m341.86 425.587c-28.78 29.319-68.949 47.432-113.339 47.179-86.417-.493-156.755-71.396-156.59-157.814.129-67.159 42.28-124.449 101.551-146.982 6.909-2.627 13.276 4.817 9.706 11.288-12.433 22.536-19.508 48.44-19.508 75.987 0 86.986 70.523 157.509 157.52 157.509 4.848 0 9.646-.219 14.384-.648 7.344-.664 11.441 8.219 6.276 13.481z" fill="#fece85"/><path d="m341.864 425.59c-3.383 3.444-6.92 6.735-10.601 9.85-4.236.308-8.503.463-12.811.463-97.432 0-176.408-78.976-176.408-176.387 0-30.856 7.927-59.862 21.849-85.094.524-.956.864-1.943 1.028-2.91 2.817-1.265 5.665-2.447 8.565-3.547 6.909-2.622 13.274 4.822 9.706 11.29-12.441 22.538-19.515 48.438-19.515 75.994 0 86.986 70.524 157.51 157.52 157.51 4.853 0 9.645-.226 14.385-.648 7.341-.669 11.443 8.215 6.282 13.479z" fill="#fec165"/><path d="m145.173 359.88c-4.364 0-8.532.834-12.363 2.337-7.258-16.193-23.506-27.479-42.4-27.479s-35.142 11.286-42.4 27.479c-3.831-1.503-7.999-2.337-12.363-2.337-18.713 0-33.884 15.17-33.884 33.884 0 18.713 15.17 33.884 33.884 33.884 9.839 0 18.694-4.197 24.884-10.894 8.078 6.794 18.498 10.894 29.879 10.894s21.802-4.099 29.879-10.894c6.19 6.697 15.045 10.894 24.884 10.894 18.713 0 33.884-15.17 33.884-33.884s-15.171-33.884-33.884-33.884z" fill="#f5f8f9"/><path d="m178.967 391.242c1.135 15.657-8.381 29.252-22.035 34.307 2.57-5.061 3.906-10.844 3.609-16.98-.785-16.248-13.311-29.849-29.446-31.916-2.76-.354-5.471-.368-8.092-.082-5.148.562-10.207-1.573-13.208-5.793-8.418-11.834-22.234-19.557-37.864-19.557-7.382 0-14.364 1.727-20.554 4.802 8.267-12.801 22.662-21.284 39.03-21.284 18.898 0 35.144 11.29 42.403 27.473 4.987-1.952 10.53-2.774 16.335-2.104 16.013 1.847 28.657 15.057 29.822 31.134z" fill="#e8edf2"/><g fill="#99e6fc"><path d="m230.618 178.059c4.259 0 7.711-3.453 7.711-7.711v-18.356c0-4.259-3.453-7.711-7.711-7.711-4.259 0-7.711 3.453-7.711 7.711v18.356c-.001 4.259 3.452 7.711 7.711 7.711z"/><path d="m371.901 383.344-15.897-9.178c-3.69-2.131-8.406-.866-10.534 2.823-2.13 3.689-.866 8.405 2.823 10.534l15.897 9.178c1.214.701 2.54 1.035 3.849 1.035 2.665 0 5.257-1.384 6.685-3.857 2.129-3.69.865-8.406-2.823-10.535z"/><path d="m389.305 302.967h-18.356c-4.259 0-7.711 3.453-7.711 7.711s3.453 7.711 7.711 7.711h18.356c4.259 0 7.711-3.453 7.711-7.711s-3.452-7.711-7.711-7.711z"/><path d="m352.155 248.226c1.308 0 2.634-.333 3.849-1.035l15.897-9.178c3.688-2.129 4.952-6.845 2.823-10.534s-6.845-4.953-10.534-2.823l-15.897 9.178c-3.688 2.129-4.952 6.845-2.823 10.534 1.428 2.475 4.02 3.858 6.685 3.858z"/><path d="m313.817 166.573c-3.689-2.131-8.405-.867-10.534 2.823l-9.178 15.897c-2.13 3.688-.866 8.404 2.823 10.534 1.214.701 2.54 1.035 3.849 1.035 2.665 0 5.257-1.383 6.685-3.857l9.178-15.897c2.129-3.689.866-8.405-2.823-10.535z"/><path d="m284.77 302.967h-46.441v-87.996c0-4.259-3.453-7.711-7.711-7.711-4.259 0-7.711 3.453-7.711 7.711v95.707c0 4.259 3.453 7.711 7.711 7.711h54.152c4.259 0 7.711-3.453 7.711-7.711s-3.452-7.711-7.711-7.711z"/></g></g></svg>