<svg height="512pt" viewBox="0 0 512 511" width="512pt" xmlns="http://www.w3.org/2000/svg"><path d="m334.359375 277.101562-4.257813 3.789063h-129.121093l-3.421875-1.910156c-.789063-.441407-19.417969-11.039063-34.136719-33.109375-13.570313-20.359375-26.582031-54.742188-11.5-102.992188l4.65625-14.898437 40.851563 14.589843c-.089844-9.25.539062-20.46875 2.800781-32.628906 6.917969-37.179687 26.078125-67.769531 55.769531-89.28125 4.011719-2.910156 8.21875-5.648437 12.609375-8.21875l20.410156-11.941406 2.101563 23.558594c.5 5.570312.730468 10.980468.957031 16.210937.542969 12.460938 1.050781 24.242188 5.101563 35.21875 4.730468 12.839844 12.71875 25.53125 25.171874 39.933594l1.988282 2.296875c17.921875 20.703125 38.230468 44.152344 42.019531 76.453125 3.300781 28.128906-10.449219 63.777344-32 82.929687zm0 0" fill="#ffb64f"/><path d="m330.101562 280.890625h-74.101562v-260.230469c4.011719-2.910156 8.21875-5.648437 12.609375-8.21875l20.410156-11.941406 2.101563 23.558594c.5 5.570312.730468 10.980468.957031 16.210937.542969 12.460938 1.050781 24.242188 5.101563 35.21875 4.730468 12.839844 12.71875 25.53125 25.171874 39.933594l1.988282 2.296875c17.921875 20.703125 38.230468 44.152344 42.019531 76.453125 3.300781 28.128906-10.449219 63.777344-32 82.929687zm0 0" fill="#ff9800"/><path d="m85 250.890625h342v107h-342zm0 0" fill="#fff3c9"/><path d="m256 250.890625h171v107h-171zm0 0" fill="#ffd9a7"/><path d="m41 327.890625h430v107h-430zm0 0" fill="#ffd9a7"/><path d="m256 327.890625h215v107h-215zm0 0" fill="#ffc273"/><path d="m0 404.890625h512v107h-512zm0 0" fill="#ff7a53"/><path d="m256 404.890625h256v107h-256zm0 0" fill="#ff4f19"/></svg>