<?xml version="1.0" encoding="iso-8859-1"?>
<!-- Generator: Adobe Illustrator 21.0.0, SVG Export Plug-In . SVG Version: 6.00 Build 0)  -->
<svg xmlns="http://www.w3.org/2000/svg" xmlns:xlink="http://www.w3.org/1999/xlink" version="1.1" id="Capa_1" x="0px" y="0px" viewBox="0 0 512 512" style="enable-background:new 0 0 512 512;" xml:space="preserve" width="512" height="512">
<g>
	<path style="fill:#FF7373;" d="M504.5,493.25H339.242H30.5h-23c-4.142,0-7.5,3.358-7.5,7.5s3.358,7.5,7.5,7.5h23h308.742H504.5   c4.142,0,7.5-3.358,7.5-7.5S508.642,493.25,504.5,493.25z"/>
	<g>
		<path style="fill:#E0FFC7;" d="M145.148,458.341C145,428.25,144.5,304.75,154.425,277.164c3.462-9.621,12.075-22.414,23.058-33.78    c4.552-4.711,9.653-8.874,15.017-12.634l123.5-1.468c29.677,19.656,49.187,53.407,49.025,91.664l-0.2,138.322L145.148,458.341z"/>
		<g>
			<path style="fill:#F9CFBF;" d="M235.183,174.166v38.983c-25.683,4.601-42.684,17.601-42.684,17.601     c9.731,23.9,34.691,39.9,62.085,39.9c27.577,0,52.168-17.074,61.779-41.228l0,0c-13.698-9.08-28.188-14.179-40.912-16.602     v-38.654"/>
		</g>
		<path style="fill:#F6B99C;" d="M316.363,229.422c-13.698-9.08-28.188-14.179-40.912-16.602v-38.654H246v38.654    c12.724,2.424,23.665,7.522,37.363,16.602l0,0c-7.665,19.264-24.862,34.013-45.499,39.2c5.391,1.321,11.001,2.028,16.72,2.028    C282.162,270.65,306.752,253.577,316.363,229.422L316.363,229.422z"/>
		<ellipse style="fill:#F9CFBF;" cx="256" cy="119.245" rx="67.216" ry="67.223"/>
		<path style="fill:#F6B99C;" d="M256,52.022c-5.694,0-11.22,0.715-16.5,2.047c29.144,7.357,50.716,33.744,50.716,65.176    c0,31.432-21.573,57.819-50.716,65.176c5.28,1.333,10.806,2.047,16.5,2.047c37.122,0,67.216-30.097,67.216-67.223    C323.216,82.119,293.122,52.022,256,52.022z"/>
		<path style="fill:#FF7373;" d="M283.294,56.871c3.95-5.506,6.275-12.256,6.275-19.549C289.569,18.781,274.54,3.75,256,3.75    s-33.569,15.031-33.569,33.572c0,6.559,2.49,12.342,5.132,17.849C230,60.25,232,60.25,232,60.25h48L283.294,56.871z"/>
		<path style="fill:#E05E5E;" d="M256,3.75c-5.999,0-11.626,1.582-16.5,4.339c10.188,5.764,17.069,16.692,17.069,29.233    c0,7.293-2.325,14.043-6.275,19.549L247,60.25h33l3.294-3.379c3.95-5.506,6.275-12.256,6.275-19.549    C289.569,18.781,274.54,3.75,256,3.75z"/>
		<g>
			<path style="fill:#FF7373;" d="M311.3,81.045c-12.131-17.531-32.369-29.023-55.3-29.023c-37.122,0-67.216,30.097-67.216,67.223     c0,2.128,0.111,4.229,0.304,6.307C203.627,129.773,276.048,146.873,311.3,81.045z"/>
		</g>
		<g>
			<path style="fill:#F9CFBF;" d="M394.854,370.234c0,0,48.228-2.755,48.228,34.795h-49.467"/>
			<polyline style="fill:#CBF5A9;" points="395.118,410.75 395.118,370.454 347.911,370.454 347.911,410.75 395.5,410.75    "/>
			<g>
				<path style="fill:#F9CFBF;" d="M405.258,377.823c-11.974,0-21.715-9.742-21.715-21.716s9.741-21.717,21.715-21.717      c11.974,0,21.715,9.742,21.715,21.717S417.232,377.823,405.258,377.823z M405.258,349.39c-3.703,0-6.715,3.013-6.715,6.717      s3.013,6.716,6.715,6.716s6.715-3.013,6.715-6.716S408.961,349.39,405.258,349.39z"/>
			</g>
		</g>
		<g>
			<path style="fill:#F9CFBF;" d="M116.576,370.234c0,0-48.228-2.755-48.228,34.795h49.467"/>
			<polygon style="fill:#CBF5A9;" points="163.519,370.454 116.312,370.454 116.312,411.75 156,411.75    "/>
			<g>
				<path style="fill:#F9CFBF;" d="M106.172,377.823c-11.974,0-21.715-9.742-21.715-21.716s9.741-21.717,21.715-21.717      s21.715,9.742,21.715,21.717S118.146,377.823,106.172,377.823z M106.172,349.39c-3.703,0-6.715,3.013-6.715,6.717      s3.012,6.716,6.715,6.716s6.715-3.013,6.715-6.716S109.875,349.39,106.172,349.39z"/>
			</g>
		</g>
		<g>
			<path style="fill:#CBF5A9;" d="M193.009,372.218V230.744l-0.509,0.006c-5.364,3.761-10.464,7.924-15.017,12.634     c-10.983,11.366-19.597,24.159-23.058,33.78c-7.127,19.81-8.878,89.081-9.245,137.704h26.003     C171.183,414.868,193.986,405.39,193.009,372.218z"/>
		</g>
		<g>
			<path style="fill:#C2E6FF;" d="M338.003,415.291h26.886l0.136-94.345c0.161-38.181-19.272-71.87-48.848-91.543v143.239     C315.2,405.813,338.003,415.291,338.003,415.291z"/>
		</g>
		<g>
			<path style="fill:#CBF5A9;" d="M338.003,415.291h26.886l0.136-94.345c0.161-38.181-19.272-71.87-48.848-91.543v143.239     C315.2,405.813,338.003,415.291,338.003,415.291z"/>
		</g>
		<path style="fill:#547539;" d="M256,452.496c-88.368-50.232-147.363-45.21-147.363-45.21l-1.406,0.365    C96,408.25,84,411.25,76,419.25c-2,2-3,4-5,5c-15,18-14,45,2,62c8,8,17,13,28,14c70,1,140-1,210,1c9,0,67.237,1,76.5-0.5"/>
		<path style="fill:#F9CFBF;" d="M137.903,500.267C154,459.75,234,465.75,234,465.75l1,34.5L137.903,500.267z"/>
		<path style="fill:#618742;" d="M183,500.25c123.197-96.673,221.31-92.964,221.31-92.964l0.458,0.365    C421,409.25,436,414.25,444,429.25c9,15,10,33,1,49c-5,9-13,14-22,19c-12,6-39.182,3.5-39.182,3.5"/>
		<path style="fill:#547539;" d="M444,429.25c-8-15-23-20-39.231-21.599l-0.458-0.365c0,0-8.465-0.316-23.527,1.678    c12.626,2.529,23.726,8.116,30.217,20.286c9,15,10,33,1,49c-5,9-13,14-22,19c-3.772,1.886-9.044,2.931-14.5,3.479l8.319,0.021    c0,0,27.182,2.5,39.182-3.5c9-5,17-10,22-19C454,462.25,453,444.25,444,429.25z"/>
		<path style="fill:#E05E5E;" d="M252.25,52.131c-4.297,0.236-8.578,0.885-12.75,1.938c25.88,6.533,45.775,28.077,49.91,54.83    c8.119-7.01,15.598-16.105,21.89-27.854C298.088,61.952,275.438,50.841,252.25,52.131z"/>
	</g>
</g>















</svg>
